<svg xmlns="http://www.w3.org/2000/svg" xmlns:xlink="http://www.w3.org/1999/xlink" id="Layer_1" x="0" y="0" version="1.1" viewBox="0 0 94.6 94.6" xml:space="preserve" style="enable-background:new 0 0 94.6 94.6"><style type="text/css">.st0{fill:none}.st1{fill:#262261}</style><g><rect width="9.7" height="2.5" x="31.2" y="43.3" class="st0"/><rect width="9.7" height="2.5" x="31.2" y="64.5" class="st0"/><path d="M22.5,77.5c0.6,0,1.2-0.5,1.2-1.2s-0.5-1.2-1.2-1.2s-1.2,0.5-1.2,1.2S21.8,77.5,22.5,77.5z" class="st0"/><path d="M18.8,77.5c0.6,0,1.2-0.5,1.2-1.2s-0.5-1.2-1.2-1.2s-1.2,0.5-1.2,1.2S18.1,77.5,18.8,77.5z" class="st0"/><path d="M22.5,64.6c-0.6,0-1.2,0.5-1.2,1.2s0.5,1.2,1.2,1.2s1.2-0.5,1.2-1.2S23.1,64.6,22.5,64.6z" class="st0"/><path d="M18.8,64.6c-0.6,0-1.2,0.5-1.2,1.2s0.5,1.2,1.2,1.2s1.2-0.5,1.2-1.2S19.4,64.6,18.8,64.6z" class="st0"/><path d="M18.8,54c-0.6,0-1.2,0.5-1.2,1.2s0.5,1.2,1.2,1.2s1.2-0.5,1.2-1.2S19.4,54,18.8,54z" class="st0"/><path d="M22.5,43.4c-0.6,0-1.2,0.5-1.2,1.2s0.5,1.2,1.2,1.2s1.2-0.5,1.2-1.2S23.1,43.4,22.5,43.4z" class="st0"/><path d="M18.8,43.4c-0.6,0-1.2,0.5-1.2,1.2s0.5,1.2,1.2,1.2s1.2-0.5,1.2-1.2S19.4,43.4,18.8,43.4z" class="st0"/><path d="M22.5,54c-0.6,0-1.2,0.5-1.2,1.2s0.5,1.2,1.2,1.2s1.2-0.5,1.2-1.2S23.1,54,22.5,54z" class="st0"/><rect width="9.7" height="2.5" x="31.2" y="53.9" class="st0"/><rect width="9.7" height="2.5" x="31.2" y="75.1" class="st0"/><rect width="93.8" height="5.5" x=".4" y="14.3" class="st1"/><polygon points="88.7 80.3 88.7 25.3 5.9 25.3 5.9 80.3 11.4 80.3 11.4 36.3 83.2 36.3 83.2 80.3" class="st1"/><path d="M15.2,80.3h28.2v-7.9H15.2V80.3z M31.2,75.1h9.7v2.5h-9.7V75.1z M22.5,75.2c0.6,0,1.2,0.5,1.2,1.2 s-0.5,1.2-1.2,1.2s-1.2-0.5-1.2-1.2S21.8,75.2,22.5,75.2z M18.8,75.2c0.6,0,1.2,0.5,1.2,1.2s-0.5,1.2-1.2,1.2s-1.2-0.5-1.2-1.2 S18.1,75.2,18.8,75.2z" class="st1"/><path d="M43.4,61.8H15.2v7.9h28.2V61.8z M18.8,66.9c-0.6,0-1.2-0.5-1.2-1.2s0.5-1.2,1.2-1.2s1.2,0.5,1.2,1.2 S19.4,66.9,18.8,66.9z M22.5,66.9c-0.6,0-1.2-0.5-1.2-1.2s0.5-1.2,1.2-1.2s1.2,0.5,1.2,1.2S23.1,66.9,22.5,66.9z M40.9,67h-9.7 v-2.5h9.7V67z" class="st1"/><path d="M43.4,51.2H15.2v7.9h28.2V51.2z M18.8,56.3c-0.6,0-1.2-0.5-1.2-1.2s0.5-1.2,1.2-1.2s1.2,0.5,1.2,1.2 S19.4,56.3,18.8,56.3z M22.5,56.3c-0.6,0-1.2-0.5-1.2-1.2s0.5-1.2,1.2-1.2s1.2,0.5,1.2,1.2S23.1,56.3,22.5,56.3z M40.9,56.4h-9.7 v-2.5h9.7V56.4z" class="st1"/><path d="M43.4,40.7H15.2v7.9h28.2V40.7z M18.8,45.8c-0.6,0-1.2-0.5-1.2-1.2s0.5-1.2,1.2-1.2s1.2,0.5,1.2,1.2 S19.4,45.8,18.8,45.8z M22.5,45.8c-0.6,0-1.2-0.5-1.2-1.2s0.5-1.2,1.2-1.2s1.2,0.5,1.2,1.2S23.1,45.8,22.5,45.8z M40.9,45.9h-9.7 v-2.5h9.7V45.9z" class="st1"/></g></svg>