<svg xmlns="http://www.w3.org/2000/svg" xmlns:xlink="http://www.w3.org/1999/xlink" id="Layer_1" x="0" y="0" version="1.1" viewBox="0 0 94.6 94.6" xml:space="preserve" style="enable-background:new 0 0 94.6 94.6"><style type="text/css">.st0{fill:none}.st1{fill:#262261}</style><g><rect width="39.2" height="61.2" x="27.7" y="15.1" class="st0"/><path d="M38.9,9.1c0.9,0,1.5-0.7,1.5-1.5S39.7,6,38.9,6s-1.5,0.7-1.5,1.5S38,9.1,38.9,9.1z" class="st0"/><path d="M47.3,82.4c-2.3,0-4.1,1.9-4.1,4.1s1.9,4.1,4.1,4.1c2.3,0,4.1-1.9,4.1-4.1S49.6,82.4,47.3,82.4z" class="st0"/><rect width="14" height="3" x="43.2" y="6" class="st0"/><path d="M21.6,94.1H73V0.2H21.6V94.1z M47.3,90.7c-2.3,0-4.1-1.9-4.1-4.1s1.9-4.1,4.1-4.1c2.3,0,4.1,1.9,4.1,4.1 S49.6,90.7,47.3,90.7z M43.2,6h14v3h-14V6z M38.9,6c0.9,0,1.5,0.7,1.5,1.5s-0.7,1.5-1.5,1.5s-1.5-0.7-1.5-1.5S38,6,38.9,6z M27.7,15.1h39.2v61.2H27.7V15.1z" class="st1"/></g></svg>