<svg xmlns="http://www.w3.org/2000/svg" xmlns:xlink="http://www.w3.org/1999/xlink" id="Layer_1" x="0" y="0" version="1.1" viewBox="0 0 94.6 94.6" xml:space="preserve" style="enable-background:new 0 0 94.6 94.6"><style type="text/css">.st0{fill:none}.st1{fill:#262261}</style><g><path d="M78,27.2c2.6-2.6,2.6-6.8,0-9.4s-6.8-2.6-9.4,0c-2.6,2.6-2.6,6.8,0,9.4C71.2,29.7,75.4,29.7,78,27.2z" class="st0"/><path d="M21.2,91.4v-8.6l0,0l8.6,0l0-8.6h8.6v-8.6l12.4,4l8.3-8.3c8.8,1.3,18.1-1.5,24.9-8.3c11.4-11.4,11.4-30,0-41.4 s-30-11.4-41.4,0c-7.3,7.3-9.9,17.5-7.9,27L0,73.4v5.1l1.9,11C6.7,90.8,16.3,91.7,21.2,91.4z M68.6,17.8c2.6-2.6,6.8-2.6,9.4,0 s2.6,6.8,0,9.4c-2.6,2.6-6.8,2.6-9.4,0C66,24.6,66,20.4,68.6,17.8z" class="st1"/></g></svg>